<?xml version="1.0" standalone="no"?>
<!DOCTYPE svg PUBLIC "-//W3C//DTD SVG 20010904//EN"
 "http://www.w3.org/TR/2001/REC-SVG-20010904/DTD/svg10.dtd">
<svg version="1.0" xmlns="http://www.w3.org/2000/svg"
 width="454.000000pt" height="454.000000pt" viewBox="0 0 454.000000 454.000000"
 preserveAspectRatio="xMidYMid meet">
<metadata>
Created by potrace 1.14, written by Peter Selinger 2001-2017
</metadata>
<g transform="translate(0.000000,454.000000) scale(0.100000,-0.100000)"
fill="#000000" stroke="none">
<path d="M2426 4058 c-10 -6 -27 -17 -36 -26 -28 -23 -92 -43 -122 -36 -21 4
-28 2 -28 -9 0 -21 -21 -35 -60 -42 -44 -7 -78 -41 -82 -80 -4 -30 -53 -123
-73 -138 -5 -4 -41 -16 -80 -27 -249 -73 -296 -96 -392 -200 -40 -43 -96 -94
-125 -113 -64 -43 -137 -107 -123 -108 35 -4 74 3 180 29 44 12 114 24 155 27
88 7 171 29 220 58 19 11 74 60 123 109 48 48 94 88 102 88 10 0 15 -11 16
-32 0 -18 2 -46 5 -63 7 -56 14 -220 13 -350 -1 -227 0 -239 11 -310 14 -90
38 -141 86 -187 21 -21 41 -38 45 -38 3 0 25 -18 50 -40 24 -22 56 -45 72 -51
50 -21 29 -60 -77 -144 -55 -44 -61 -47 -107 -43 -34 4 -68 18 -119 49 -114
71 -130 77 -183 73 -31 -3 -53 0 -60 8 -22 23 -44 62 -57 103 -32 98 -84 145
-160 145 -33 0 -48 -6 -71 -29 -16 -17 -29 -40 -28 -53 0 -22 1 -22 9 -3 29
71 116 91 170 40 29 -28 100 -187 100 -224 0 -11 -13 -31 -30 -44 -16 -14 -30
-29 -30 -34 0 -4 16 -18 35 -30 59 -39 66 -63 71 -271 3 -109 1 -193 -5 -201
-5 -8 -29 -17 -52 -21 -24 -4 -75 -16 -112 -25 -47 -13 -71 -15 -78 -8 -6 6
-12 79 -14 174 -4 199 -8 224 -44 328 -23 66 -28 96 -27 161 1 44 -2 80 -6 80
-4 0 -8 -38 -8 -84 0 -62 7 -107 24 -163 39 -126 45 -171 46 -328 1 -175 -4
-185 -97 -209 -37 -10 -84 -24 -103 -31 -19 -8 -46 -17 -60 -21 -50 -13 -127
-53 -133 -68 -7 -17 -2 -147 8 -189 6 -31 168 -349 191 -376 8 -9 39 -44 69
-78 30 -35 55 -66 55 -71 0 -4 53 -59 117 -122 64 -63 147 -145 183 -181 86
-85 101 -91 128 -44 12 19 29 35 37 35 9 0 50 -12 91 -26 l74 -25 56 25 c81
37 108 60 122 102 25 73 83 182 100 189 67 27 179 22 257 -11 20 -8 76 -17
125 -20 83 -5 89 -4 100 16 7 12 10 30 7 40 -8 31 9 45 55 43 24 -1 85 -4 137
-6 52 -2 108 1 125 7 80 28 165 132 196 239 32 116 23 296 -25 472 -9 33 -18
65 -19 70 -1 6 -12 40 -24 77 -12 37 -24 93 -27 125 -9 97 -45 184 -94 232
-55 52 -101 91 -107 91 -4 0 -25 15 -48 34 -23 18 -93 68 -156 110 -135 91
-206 157 -216 200 -4 17 -6 58 -4 91 7 139 3 225 -14 300 -10 44 -20 91 -22
105 -3 14 -17 68 -31 120 -51 190 -54 210 -54 384 0 126 3 172 13 182 9 9 49
14 127 15 105 1 124 5 230 41 120 41 197 64 242 72 38 6 124 49 204 101 l70
45 -70 -5 c-179 -13 -207 -13 -251 0 -63 19 -203 17 -280 -5 -35 -9 -65 -15
-68 -13 -8 8 -46 -18 -46 -31 0 -18 -75 -81 -126 -106 -54 -27 -78 -25 -103 7
-18 22 -19 29 -9 45 16 24 76 57 113 62 6 1 30 8 55 16 l45 14 -33 4 c-33 3
-121 -20 -157 -43 -11 -6 -41 -21 -67 -33 -66 -29 -79 -11 -37 47 34 45 35 56
5 39z m-367 -1920 c84 -52 88 -53 161 -52 57 1 85 6 115 22 65 36 88 27 101
-38 17 -86 -9 -143 -126 -270 -27 -30 -61 -79 -75 -107 -14 -29 -30 -53 -36
-53 -6 0 -39 23 -73 51 -94 78 -96 79 -101 79 -3 0 -25 16 -51 35 -25 19 -51
35 -59 35 -32 0 -43 44 -44 177 l-2 131 27 21 c40 32 68 26 163 -31z"/>
</g>
</svg>
